<svg xmlns="http://www.w3.org/2000/svg" xml:space="preserve" style="enable-background:new 0 0 512 512" viewBox="0 0 512 512"><path d="M477.867 102.4c-18.825 0-34.133 15.309-34.133 34.133s15.309 34.133 34.133 34.133S512 155.358 512 136.533c0-18.824-15.309-34.133-34.133-34.133zm0 51.2c-9.412 0-17.067-7.654-17.067-17.067 0-9.412 7.654-17.067 17.067-17.067s17.067 7.654 17.067 17.067c-.001 9.413-7.655 17.067-17.067 17.067zM34.133 384C15.309 384 0 399.309 0 418.133s15.309 34.133 34.133 34.133c18.825 0 34.133-15.309 34.133-34.133S52.958 384 34.133 384zm0 51.2c-9.412 0-17.067-7.654-17.067-17.067s7.654-17.067 17.067-17.067c9.412 0 17.067 7.654 17.067 17.067S43.546 435.2 34.133 435.2z"/><path d="m461.321 113.186-73.617-35.541c-4.25-2.057-9.344-.265-11.392 3.977-2.048 4.241-.265 9.344 3.977 11.392l73.617 35.541c1.195.58 2.458.853 3.703.853 3.174 0 6.221-1.775 7.688-4.83 2.048-4.241.265-9.344-3.976-11.392zM384 443.733c-18.825 0-34.133 15.309-34.133 34.133S365.175 512 384 512c18.825 0 34.133-15.309 34.133-34.133S402.825 443.733 384 443.733zm0 51.2c-9.412 0-17.067-7.654-17.067-17.067S374.588 460.8 384 460.8c9.412 0 17.067 7.654 17.067 17.067s-7.655 17.066-17.067 17.066z"/><path d="m367.454 454.52-73.617-35.541c-4.25-2.057-9.344-.273-11.392 3.977-2.048 4.241-.265 9.344 3.977 11.392l73.617 35.541c1.195.58 2.458.853 3.703.853 3.174 0 6.221-1.775 7.689-4.83 2.047-4.242.264-9.344-3.977-11.392zM256 230.4c-18.825 0-34.133 15.309-34.133 34.133 0 18.825 15.309 34.133 34.133 34.133 18.825 0 34.133-15.309 34.133-34.133 0-18.824-15.308-34.133-34.133-34.133zm0 51.2c-9.412 0-17.067-7.654-17.067-17.067 0-9.412 7.654-17.067 17.067-17.067 9.412 0 17.067 7.654 17.067 17.067S265.412 281.6 256 281.6z"/><path d="m240.998 242.142-56.55-44.075c-3.721-2.876-9.079-2.236-11.981 1.485-2.893 3.721-2.236 9.079 1.485 11.981l56.55 44.075c1.562 1.212 3.405 1.801 5.24 1.801 2.543 0 5.052-1.126 6.741-3.285 2.893-3.722 2.236-9.081-1.485-11.982zM409.6 221.867c-51.755 0-93.867 42.112-93.867 93.867s42.112 93.867 93.867 93.867 93.867-42.112 93.867-93.867-42.112-93.867-93.867-93.867zm0 170.666c-42.351 0-76.8-34.449-76.8-76.8s34.449-76.8 76.8-76.8 76.8 34.449 76.8 76.8-34.449 76.8-76.8 76.8z"/><path d="M409.6 256c-18.825 0-34.133 15.309-34.133 34.133 0 18.825 15.309 34.133 34.133 34.133 18.825 0 34.133-15.309 34.133-34.133S428.425 256 409.6 256zm0 51.2c-9.412 0-17.067-7.654-17.067-17.067 0-9.412 7.654-17.067 17.067-17.067 9.412 0 17.067 7.654 17.067 17.067S419.012 307.2 409.6 307.2zM434.355 341.333h-49.51c-14.583 0-26.445 11.546-26.445 25.728v22.494c0 3.046 1.621 5.862 4.258 7.39C376.96 405.222 393.19 409.6 409.6 409.6s32.64-4.378 46.942-12.655c2.637-1.519 4.258-4.344 4.258-7.381V367.07c0-14.191-11.861-25.737-26.445-25.737zm9.378 43.136c-21.239 10.581-47.027 10.581-68.267 0V367.07c0-4.779 4.207-8.67 9.378-8.67h49.51c5.171 0 9.378 3.891 9.378 8.67v17.399zM204.8 324.267c-51.755 0-93.867 42.112-93.867 93.867S153.045 512 204.8 512s93.867-42.112 93.867-93.867-42.112-93.866-93.867-93.866zm0 170.666c-42.351 0-76.8-34.449-76.8-76.8s34.449-76.8 76.8-76.8 76.8 34.449 76.8 76.8-34.449 76.8-76.8 76.8z"/><path d="M204.8 358.4c-18.825 0-34.133 15.309-34.133 34.133 0 18.825 15.309 34.133 34.133 34.133s34.133-15.309 34.133-34.133c0-18.824-15.308-34.133-34.133-34.133zm0 51.2c-9.412 0-17.067-7.654-17.067-17.067 0-9.412 7.654-17.067 17.067-17.067 9.412 0 17.067 7.654 17.067 17.067S214.212 409.6 204.8 409.6zM229.555 443.733h-49.51c-14.583 0-26.445 11.546-26.445 25.728v22.494c0 3.046 1.621 5.862 4.258 7.39C172.16 507.622 188.39 512 204.8 512s32.64-4.378 46.942-12.655c2.637-1.519 4.258-4.343 4.258-7.381V469.47c0-14.191-11.861-25.737-26.445-25.737zm9.378 43.136c-21.24 10.581-47.027 10.581-68.267 0V469.47c0-4.779 4.207-8.67 9.378-8.67h49.51c5.171 0 9.378 3.891 9.378 8.67v17.399zM93.867 110.933C42.112 110.933 0 153.045 0 204.8s42.112 93.867 93.867 93.867 93.867-42.112 93.867-93.867c-.001-51.755-42.113-93.867-93.867-93.867zm0 170.667c-42.351 0-76.8-34.449-76.8-76.8s34.449-76.8 76.8-76.8 76.8 34.449 76.8 76.8-34.449 76.8-76.8 76.8z"/><path d="M93.867 145.067c-18.825 0-34.133 15.309-34.133 34.133s15.309 34.133 34.133 34.133c18.825 0 34.133-15.309 34.133-34.133s-15.309-34.133-34.133-34.133zm0 51.2c-9.412 0-17.067-7.654-17.067-17.067s7.654-17.067 17.067-17.067c9.412 0 17.067 7.654 17.067 17.067s-7.655 17.067-17.067 17.067zM118.622 230.4h-49.51c-14.583 0-26.445 11.546-26.445 25.728v22.494c0 3.046 1.621 5.862 4.258 7.39 14.302 8.277 30.532 12.655 46.942 12.655s32.64-4.378 46.942-12.655c2.637-1.519 4.258-4.344 4.258-7.381v-22.494c0-14.191-11.862-25.737-26.445-25.737zM128 273.536c-21.239 10.581-47.027 10.581-68.267 0v-17.399c0-4.779 4.207-8.67 9.378-8.67h49.51c5.171 0 9.378 3.891 9.378 8.67v17.399zM298.667 0C246.912 0 204.8 42.112 204.8 93.867s42.112 93.867 93.867 93.867 93.867-42.112 93.867-93.867C392.533 42.112 350.421 0 298.667 0zm0 170.667c-42.351 0-76.8-34.449-76.8-76.8s34.449-76.8 76.8-76.8 76.8 34.449 76.8 76.8-34.449 76.8-76.8 76.8z"/><path d="M298.667 34.133c-18.825 0-34.133 15.309-34.133 34.133s15.309 34.133 34.133 34.133S332.8 87.091 332.8 68.267s-15.309-34.134-34.133-34.134zm0 51.2c-9.412 0-17.067-7.654-17.067-17.067 0-9.412 7.654-17.067 17.067-17.067s17.067 7.654 17.067 17.067c-.001 9.413-7.655 17.067-17.067 17.067zM323.422 119.467h-49.51c-14.583 0-26.445 11.546-26.445 25.728v22.494c0 3.046 1.621 5.862 4.258 7.39 14.302 8.277 30.532 12.655 46.942 12.655s32.64-4.378 46.942-12.655c2.637-1.519 4.258-4.344 4.258-7.381v-22.494c0-14.192-11.862-25.737-26.445-25.737zm9.378 43.136c-21.239 10.581-47.027 10.581-68.267 0v-17.399c0-4.779 4.207-8.67 9.378-8.67h49.51c5.171 0 9.378 3.891 9.378 8.67v17.399zM219.827 88.311c-3.063-3.567-8.448-3.994-12.032-.93l-59.136 50.603c-3.584 3.063-4.002 8.448-.939 12.032 1.69 1.971 4.079 2.987 6.485 2.987 1.963 0 3.934-.674 5.547-2.057l59.136-50.603c3.585-3.063 4.003-8.448.939-12.032z"/><path d="m407.893 225.289-51.2-68.267c-2.825-3.78-8.175-4.523-11.947-1.707-3.772 2.825-4.531 8.175-1.707 11.938l51.2 68.267c1.681 2.236 4.241 3.413 6.835 3.413 1.775 0 3.576-.555 5.112-1.707 3.772-2.824 4.532-8.174 1.707-11.937zM337.86 343.953c-2.825-3.772-8.175-4.531-11.947-1.707l-47.667 35.746c-3.772 2.825-4.531 8.175-1.707 11.938 1.681 2.236 4.241 3.413 6.835 3.413 1.783 0 3.575-.563 5.112-1.707l47.667-35.746c3.772-2.823 4.532-8.174 1.707-11.937zM119.467 409.6H59.733c-4.71 0-8.533 3.814-8.533 8.533s3.823 8.533 8.533 8.533h59.733c4.71 0 8.533-3.814 8.533-8.533s-3.822-8.533-8.532-8.533zM93.867 0C75.042 0 59.733 15.309 59.733 34.133c0 18.825 15.309 34.133 34.133 34.133 18.825 0 34.133-15.309 34.133-34.133C128 15.309 112.691 0 93.867 0zm0 51.2c-9.412 0-17.067-7.654-17.067-17.067 0-9.412 7.654-17.067 17.067-17.067 9.412 0 17.067 7.654 17.067 17.067-.001 9.413-7.655 17.067-17.067 17.067z"/><path d="M93.867 51.2c-4.71 0-8.533 3.814-8.533 8.533v59.733c0 4.719 3.823 8.533 8.533 8.533 4.71 0 8.533-3.814 8.533-8.533V59.733c0-4.719-3.823-8.533-8.533-8.533z"/></svg>